# Blender v2.80 (sub 30) OBJ File: 'loop.blend'
# www.blender.org
mtllib loop.mtl
o Cube_Cube.002
v 0.000000 -2.000000 0.000000
v 0.000000 0.000000 0.000000
v 8.000000 -2.000000 0.000000
v 8.000000 0.000000 0.000000
v 0.250000 -1.823275 -1.794315
v 0.250000 0.138296 -1.404135
v 8.250000 -1.823275 -1.794315
v 8.250000 0.138296 -1.404135
v 0.500000 -1.299892 -3.519676
v 0.500000 0.547866 -2.754309
v 8.500000 -1.299892 -3.519676
v 8.500000 0.547866 -2.754309
v 0.750000 -0.449965 -5.109778
v 0.750000 1.212974 -3.998637
v 8.750000 -0.449965 -5.109778
v 8.750000 1.212974 -3.998637
v 1.000000 0.693844 -6.503513
v 1.000000 2.108057 -5.089300
v 9.000000 0.693844 -6.503513
v 9.000000 2.108057 -5.089300
v 1.250000 2.087580 -7.647324
v 1.250000 3.198720 -5.984384
v 9.250000 2.087580 -7.647324
v 9.250000 3.198720 -5.984384
v 1.500000 3.677681 -8.497250
v 1.500000 4.443048 -6.649491
v 9.500000 3.677681 -8.497250
v 9.500000 4.443048 -6.649491
v 1.750000 5.403043 -9.020633
v 1.750000 5.793223 -7.059062
v 9.750000 5.403043 -9.020633
v 9.750000 5.793223 -7.059062
v 2.000000 7.197358 -9.197357
v 2.000000 7.197358 -7.197357
v 10.000000 7.197358 -9.197357
v 10.000000 7.197358 -7.197357
v 2.250000 8.991673 -9.020632
v 2.250000 8.601492 -7.059062
v 10.250000 8.991673 -9.020632
v 10.250000 8.601492 -7.059062
v 2.500000 10.717034 -8.497250
v 2.500000 9.951667 -6.649491
v 10.500000 10.717034 -8.497250
v 10.500000 9.951667 -6.649491
v 2.750000 12.307137 -7.647322
v 2.750000 11.195995 -5.984383
v 10.750000 12.307137 -7.647322
v 10.750000 11.195995 -5.984383
v 3.000000 13.700871 -6.503513
v 3.000000 12.286657 -5.089300
v 11.000000 13.700871 -6.503513
v 11.000000 12.286657 -5.089300
v 3.250000 14.844681 -5.109777
v 3.250000 13.181742 -3.998637
v 11.250000 14.844681 -5.109777
v 11.250000 13.181742 -3.998637
v 3.500000 15.694608 -3.519675
v 3.500000 13.846849 -2.754308
v 11.500000 15.694608 -3.519675
v 11.500000 13.846849 -2.754308
v 3.750000 16.217991 -1.794315
v 3.750000 14.256419 -1.404135
v 11.750000 16.217991 -1.794315
v 11.750000 14.256419 -1.404135
v 4.000000 16.394714 0.000001
v 4.000000 14.394714 0.000001
v 12.000000 16.394714 0.000001
v 12.000000 14.394714 0.000001
v 4.250000 16.217989 1.794317
v 4.250000 14.256418 1.404136
v 12.250000 16.217989 1.794317
v 12.250000 14.256418 1.404136
v 4.500000 15.694607 3.519676
v 4.500000 13.846848 2.754309
v 12.500000 15.694607 3.519676
v 12.500000 13.846848 2.754309
v 4.750000 14.844679 5.109778
v 4.750000 13.181740 3.998638
v 12.750000 14.844679 5.109778
v 12.750000 13.181740 3.998638
v 5.000000 13.700870 6.503515
v 5.000000 12.286656 5.089301
v 13.000000 13.700870 6.503515
v 13.000000 12.286656 5.089301
v 5.250000 12.307133 7.647325
v 5.250000 11.195993 5.984385
v 13.250000 12.307133 7.647325
v 13.250000 11.195993 5.984385
v 5.500000 10.717031 8.497252
v 5.500000 9.951664 6.649492
v 13.500000 10.717031 8.497252
v 13.500000 9.951664 6.649492
v 5.750000 8.991673 9.020632
v 5.750000 8.601492 7.059062
v 13.750000 8.991673 9.020632
v 13.750000 8.601492 7.059062
v 6.000000 7.197357 9.197357
v 6.000000 7.197357 7.197357
v 14.000000 7.197357 9.197357
v 14.000000 7.197357 7.197357
v 6.250000 5.403041 9.020632
v 6.250000 5.793222 7.059062
v 14.250000 5.403041 9.020632
v 14.250000 5.793222 7.059062
v 6.500000 3.677679 8.497250
v 6.500000 4.443047 6.649490
v 14.500000 3.677679 8.497250
v 14.500000 4.443047 6.649490
v 6.750000 2.087577 7.647322
v 6.750000 3.198718 5.984383
v 14.750000 2.087577 7.647322
v 14.750000 3.198718 5.984383
v 7.000000 0.693841 6.503511
v 7.000000 2.108056 5.089298
v 15.000000 0.693841 6.503511
v 15.000000 2.108056 5.089298
v 7.250000 -0.449965 5.109778
v 7.250000 1.212974 3.998638
v 15.250000 -0.449965 5.109778
v 15.250000 1.212974 3.998638
v 7.500000 -1.299893 3.519676
v 7.500000 0.547866 2.754309
v 15.500000 -1.299893 3.519676
v 15.500000 0.547866 2.754309
v 7.750000 -1.823276 1.794315
v 7.750000 0.138295 1.404134
v 15.750000 -1.823276 1.794315
v 15.750000 0.138295 1.404134
v 8.000000 -2.000000 -0.000002
v 8.000000 0.000000 -0.000001
v 16.000000 -2.000000 -0.000002
v 16.000000 0.000000 -0.000001
vt 0.031250 0.000000
vt 0.031250 0.000000
vt 0.000000 0.000000
vt 0.000000 0.000000
vt 0.062500 0.000000
vt 0.062500 0.000000
vt 0.093750 0.000000
vt 0.093750 0.000000
vt 0.125000 0.000000
vt 0.125000 0.000000
vt 0.156250 0.000000
vt 0.156250 0.000000
vt 0.187500 0.000000
vt 0.187500 0.000000
vt 0.218750 0.000000
vt 0.218750 0.000000
vt 0.250000 0.000000
vt 0.250000 0.000000
vt 0.281250 0.000000
vt 0.281250 0.000000
vt 0.312500 0.000000
vt 0.312500 0.000000
vt 0.343750 0.000000
vt 0.343750 0.000000
vt 0.375000 0.000000
vt 0.375000 0.000000
vt 0.406250 0.000000
vt 0.406250 0.000000
vt 0.437500 0.000000
vt 0.437500 0.000000
vt 0.468750 0.000000
vt 0.468750 0.000000
vt 0.500000 0.000000
vt 0.500000 0.000000
vt 0.531250 0.000000
vt 0.531250 0.000000
vt 0.562500 0.000000
vt 0.562500 0.000000
vt 0.593750 0.000000
vt 0.593750 0.000000
vt 0.625000 0.000000
vt 0.625000 0.000000
vt 0.656250 0.000000
vt 0.656250 0.000000
vt 0.687500 0.000000
vt 0.687500 0.000000
vt 0.718750 0.000000
vt 0.718750 0.000000
vt 0.750000 0.000000
vt 0.750000 0.000000
vt 0.781250 0.000000
vt 0.781250 0.000000
vt 0.812500 0.000000
vt 0.812500 0.000000
vt 0.843750 0.000000
vt 0.843750 0.000000
vt 0.875000 0.000000
vt 0.875000 0.000000
vt 0.906250 0.000000
vt 0.906250 0.000000
vt 0.937500 0.000000
vt 0.937500 0.000000
vt 0.968750 0.000000
vt 0.968750 0.000000
vt 1.000000 0.000000
vt 1.000000 0.000000
vt 0.031250 2.000000
vt 0.031250 2.000000
vt 0.000000 2.000000
vt 0.000000 2.000000
vt 0.062500 2.000000
vt 0.062500 2.000000
vt 0.093750 2.000000
vt 0.093750 2.000000
vt 0.125000 2.000000
vt 0.125000 2.000000
vt 0.156250 2.000000
vt 0.156250 2.000000
vt 0.187500 2.000000
vt 0.187500 2.000000
vt 0.218750 2.000000
vt 0.218750 2.000000
vt 0.250000 2.000000
vt 0.250000 2.000000
vt 0.281250 2.000000
vt 0.281250 2.000000
vt 0.312500 2.000000
vt 0.312500 2.000000
vt 0.343750 2.000000
vt 0.343750 2.000000
vt 0.375000 2.000000
vt 0.375000 2.000000
vt 0.406250 2.000000
vt 0.406250 2.000000
vt 0.437500 2.000000
vt 0.437500 2.000000
vt 0.468750 2.000000
vt 0.468750 2.000000
vt 0.500000 2.000000
vt 0.500000 2.000000
vt 0.531250 2.000000
vt 0.531250 2.000000
vt 0.562500 2.000000
vt 0.562500 2.000000
vt 0.593750 2.000000
vt 0.593750 2.000000
vt 0.625000 2.000000
vt 0.625000 2.000000
vt 0.656250 2.000000
vt 0.656250 2.000000
vt 0.687500 2.000000
vt 0.687500 2.000000
vt 0.718750 2.000000
vt 0.718750 2.000000
vt 0.750000 2.000000
vt 0.750000 2.000000
vt 0.781250 2.000000
vt 0.781250 2.000000
vt 0.812500 2.000000
vt 0.812500 2.000000
vt 0.843750 2.000000
vt 0.843750 2.000000
vt 0.875000 2.000000
vt 0.875000 2.000000
vt 0.906250 2.000000
vt 0.906250 2.000000
vt 0.937500 2.000000
vt 0.937500 2.000000
vt 0.968750 2.000000
vt 0.968750 2.000000
vt 1.000000 2.000000
vt 1.000000 2.000000
vn 0.9881 -0.0151 0.1530
vn 0.9881 -0.0446 0.1471
vn 0.9881 -0.0725 0.1356
vn 0.9881 -0.0975 0.1188
vn 0.9881 -0.1188 0.0975
vn 0.9881 -0.1356 0.0725
vn 0.9881 -0.1471 0.0446
vn 0.9881 -0.1530 0.0151
vn 0.9881 -0.1530 -0.0151
vn 0.9881 -0.1471 -0.0446
vn 0.9881 -0.1356 -0.0725
vn 0.9881 -0.1188 -0.0975
vn 0.9881 -0.0975 -0.1188
vn 0.9881 -0.0725 -0.1356
vn 0.9881 -0.0446 -0.1471
vn 0.9881 -0.0151 -0.1530
vn 0.9881 0.0151 -0.1530
vn 0.9881 0.0446 -0.1471
vn 0.9881 0.0725 -0.1356
vn 0.9881 0.0975 -0.1188
vn 0.9881 0.1188 -0.0975
vn 0.9881 0.1356 -0.0725
vn 0.9881 0.1471 -0.0446
vn 0.9881 0.1530 -0.0151
vn 0.9881 0.1530 0.0151
vn 0.9881 0.1471 0.0446
vn 0.9881 0.1356 0.0725
vn 0.9881 0.1188 0.0975
vn 0.9881 0.0975 0.1188
vn 0.9881 0.0725 0.1356
vn 0.9881 0.0446 0.1471
vn 0.9881 0.0151 0.1530
vn -0.9881 0.0151 -0.1530
vn -0.9881 0.0446 -0.1471
vn -0.9881 0.0725 -0.1356
vn -0.9881 0.0975 -0.1188
vn -0.9881 0.1188 -0.0975
vn -0.9881 0.1356 -0.0725
vn -0.9881 0.1471 -0.0446
vn -0.9881 0.1530 -0.0151
vn -0.9881 0.1530 0.0151
vn -0.9881 0.1471 0.0446
vn -0.9881 0.1356 0.0725
vn -0.9881 0.1188 0.0975
vn -0.9881 0.0975 0.1188
vn -0.9881 0.0725 0.1356
vn -0.9881 0.0446 0.1471
vn -0.9881 0.0151 0.1530
vn -0.9881 -0.0151 0.1530
vn -0.9881 -0.0446 0.1471
vn -0.9881 -0.0725 0.1356
vn -0.9881 -0.0975 0.1188
vn -0.9881 -0.1188 0.0975
vn -0.9881 -0.1356 0.0725
vn -0.9881 -0.1471 0.0446
vn -0.9881 -0.1530 0.0151
vn -0.9881 -0.1530 -0.0151
vn -0.9881 -0.1471 -0.0446
vn -0.9881 -0.1356 -0.0725
vn -0.9881 -0.1188 -0.0975
vn -0.9881 -0.0975 -0.1188
vn -0.9881 -0.0725 -0.1356
vn -0.9881 -0.0446 -0.1471
vn -0.9881 -0.0151 -0.1530
vn 0.0000 -0.9952 -0.0980
vn 0.0000 -0.9569 -0.2903
vn 0.0000 -0.8819 -0.4714
vn 0.0000 -0.7730 -0.6344
vn 0.0000 -0.6344 -0.7730
vn 0.0000 -0.4714 -0.8819
vn 0.0000 -0.2903 -0.9569
vn 0.0000 -0.0980 -0.9952
vn 0.0000 0.0980 -0.9952
vn 0.0000 0.2903 -0.9569
vn 0.0000 0.4714 -0.8819
vn 0.0000 0.6344 -0.7730
vn 0.0000 0.7730 -0.6344
vn 0.0000 0.8819 -0.4714
vn 0.0000 0.9569 -0.2903
vn 0.0000 0.9952 -0.0980
vn 0.0000 0.9952 0.0980
vn 0.0000 0.9569 0.2903
vn 0.0000 0.8819 0.4714
vn 0.0000 0.7730 0.6344
vn 0.0000 0.6344 0.7730
vn 0.0000 0.4714 0.8819
vn 0.0000 0.2903 0.9569
vn 0.0000 0.0980 0.9952
vn 0.0000 -0.0980 0.9952
vn 0.0000 -0.2903 0.9569
vn 0.0000 -0.4714 0.8819
vn 0.0000 -0.6344 0.7730
vn 0.0000 -0.7730 0.6344
vn 0.0000 -0.8819 0.4714
vn 0.0000 -0.9569 0.2903
vn 0.0000 -0.9952 0.0980
usemtl None
s off
f 5/1/1 6/2/1 2/3/1 1/4/1
f 9/5/2 10/6/2 6/2/2 5/1/2
f 13/7/3 14/8/3 10/6/3 9/5/3
f 17/9/4 18/10/4 14/8/4 13/7/4
f 21/11/5 22/12/5 18/10/5 17/9/5
f 25/13/6 26/14/6 22/12/6 21/11/6
f 29/15/7 30/16/7 26/14/7 25/13/7
f 33/17/8 34/18/8 30/16/8 29/15/8
f 37/19/9 38/20/9 34/18/9 33/17/9
f 41/21/10 42/22/10 38/20/10 37/19/10
f 45/23/11 46/24/11 42/22/11 41/21/11
f 49/25/12 50/26/12 46/24/12 45/23/12
f 53/27/13 54/28/13 50/26/13 49/25/13
f 57/29/14 58/30/14 54/28/14 53/27/14
f 61/31/15 62/32/15 58/30/15 57/29/15
f 65/33/16 66/34/16 62/32/16 61/31/16
f 69/35/17 70/36/17 66/34/17 65/33/17
f 73/37/18 74/38/18 70/36/18 69/35/18
f 77/39/19 78/40/19 74/38/19 73/37/19
f 81/41/20 82/42/20 78/40/20 77/39/20
f 85/43/21 86/44/21 82/42/21 81/41/21
f 89/45/22 90/46/22 86/44/22 85/43/22
f 93/47/23 94/48/23 90/46/23 89/45/23
f 97/49/24 98/50/24 94/48/24 93/47/24
f 101/51/25 102/52/25 98/50/25 97/49/25
f 105/53/26 106/54/26 102/52/26 101/51/26
f 109/55/27 110/56/27 106/54/27 105/53/27
f 113/57/28 114/58/28 110/56/28 109/55/28
f 117/59/29 118/60/29 114/58/29 113/57/29
f 121/61/30 122/62/30 118/60/30 117/59/30
f 125/63/31 126/64/31 122/62/31 121/61/31
f 129/65/32 130/66/32 126/64/32 125/63/32
f 8/67/33 7/68/33 3/69/33 4/70/33
f 12/71/34 11/72/34 7/68/34 8/67/34
f 16/73/35 15/74/35 11/72/35 12/71/35
f 20/75/36 19/76/36 15/74/36 16/73/36
f 24/77/37 23/78/37 19/76/37 20/75/37
f 28/79/38 27/80/38 23/78/38 24/77/38
f 32/81/39 31/82/39 27/80/39 28/79/39
f 36/83/40 35/84/40 31/82/40 32/81/40
f 40/85/41 39/86/41 35/84/41 36/83/41
f 44/87/42 43/88/42 39/86/42 40/85/42
f 48/89/43 47/90/43 43/88/43 44/87/43
f 52/91/44 51/92/44 47/90/44 48/89/44
f 56/93/45 55/94/45 51/92/45 52/91/45
f 60/95/46 59/96/46 55/94/46 56/93/46
f 64/97/47 63/98/47 59/96/47 60/95/47
f 68/99/48 67/100/48 63/98/48 64/97/48
f 72/101/49 71/102/49 67/100/49 68/99/49
f 76/103/50 75/104/50 71/102/50 72/101/50
f 80/105/51 79/106/51 75/104/51 76/103/51
f 84/107/52 83/108/52 79/106/52 80/105/52
f 88/109/53 87/110/53 83/108/53 84/107/53
f 92/111/54 91/112/54 87/110/54 88/109/54
f 96/113/55 95/114/55 91/112/55 92/111/55
f 100/115/56 99/116/56 95/114/56 96/113/56
f 104/117/57 103/118/57 99/116/57 100/115/57
f 108/119/58 107/120/58 103/118/58 104/117/58
f 112/121/59 111/122/59 107/120/59 108/119/59
f 116/123/60 115/124/60 111/122/60 112/121/60
f 120/125/61 119/126/61 115/124/61 116/123/61
f 124/127/62 123/128/62 119/126/62 120/125/62
f 128/129/63 127/130/63 123/128/63 124/127/63
f 132/131/64 131/132/64 127/130/64 128/129/64
f 5/1/65 7/68/65 3/69/65 1/4/65
f 9/5/66 11/72/66 7/68/66 5/1/66
f 13/7/67 15/74/67 11/72/67 9/5/67
f 17/9/68 19/76/68 15/74/68 13/7/68
f 21/11/69 23/78/69 19/76/69 17/9/69
f 25/13/70 27/80/70 23/78/70 21/11/70
f 29/15/71 31/82/71 27/80/71 25/13/71
f 33/17/72 35/84/72 31/82/72 29/15/72
f 37/19/73 39/86/73 35/84/73 33/17/73
f 41/21/74 43/88/74 39/86/74 37/19/74
f 45/23/75 47/90/75 43/88/75 41/21/75
f 49/25/76 51/92/76 47/90/76 45/23/76
f 53/27/77 55/94/77 51/92/77 49/25/77
f 57/29/78 59/96/78 55/94/78 53/27/78
f 61/31/79 63/98/79 59/96/79 57/29/79
f 65/33/80 67/100/80 63/98/80 61/31/80
f 69/35/81 71/102/81 67/100/81 65/33/81
f 73/37/82 75/104/82 71/102/82 69/35/82
f 77/39/83 79/106/83 75/104/83 73/37/83
f 81/41/84 83/108/84 79/106/84 77/39/84
f 85/43/85 87/110/85 83/108/85 81/41/85
f 89/45/86 91/112/86 87/110/86 85/43/86
f 93/47/87 95/114/87 91/112/87 89/45/87
f 97/49/88 99/116/88 95/114/88 93/47/88
f 101/51/89 103/118/89 99/116/89 97/49/89
f 105/53/90 107/120/90 103/118/90 101/51/90
f 109/55/91 111/122/91 107/120/91 105/53/91
f 113/57/92 115/124/92 111/122/92 109/55/92
f 117/59/93 119/126/93 115/124/93 113/57/93
f 121/61/94 123/128/94 119/126/94 117/59/94
f 125/63/95 127/130/95 123/128/95 121/61/95
f 129/65/96 131/132/96 127/130/96 125/63/96
f 8/67/81 6/2/81 2/3/81 4/70/81
f 12/71/82 10/6/82 6/2/82 8/67/82
f 16/73/83 14/8/83 10/6/83 12/71/83
f 20/75/84 18/10/84 14/8/84 16/73/84
f 24/77/85 22/12/85 18/10/85 20/75/85
f 28/79/86 26/14/86 22/12/86 24/77/86
f 32/81/87 30/16/87 26/14/87 28/79/87
f 36/83/88 34/18/88 30/16/88 32/81/88
f 40/85/89 38/20/89 34/18/89 36/83/89
f 44/87/90 42/22/90 38/20/90 40/85/90
f 48/89/91 46/24/91 42/22/91 44/87/91
f 52/91/92 50/26/92 46/24/92 48/89/92
f 56/93/93 54/28/93 50/26/93 52/91/93
f 60/95/94 58/30/94 54/28/94 56/93/94
f 64/97/95 62/32/95 58/30/95 60/95/95
f 68/99/96 66/34/96 62/32/96 64/97/96
f 72/101/65 70/36/65 66/34/65 68/99/65
f 76/103/66 74/38/66 70/36/66 72/101/66
f 80/105/67 78/40/67 74/38/67 76/103/67
f 84/107/68 82/42/68 78/40/68 80/105/68
f 88/109/69 86/44/69 82/42/69 84/107/69
f 92/111/70 90/46/70 86/44/70 88/109/70
f 96/113/71 94/48/71 90/46/71 92/111/71
f 100/115/72 98/50/72 94/48/72 96/113/72
f 104/117/73 102/52/73 98/50/73 100/115/73
f 108/119/74 106/54/74 102/52/74 104/117/74
f 112/121/75 110/56/75 106/54/75 108/119/75
f 116/123/76 114/58/76 110/56/76 112/121/76
f 120/125/77 118/60/77 114/58/77 116/123/77
f 124/127/78 122/62/78 118/60/78 120/125/78
f 128/129/79 126/64/79 122/62/79 124/127/79
f 132/131/80 130/66/80 126/64/80 128/129/80
